<svg width="16" height="18" viewBox="0 0 16 18" fill="none" xmlns="http://www.w3.org/2000/svg">
<path d="M8.03516 6.47695H12.7856M8.08394 0.0556641V1.70183V11.1786M8.08394 0.59988C10.6804 0.59988 12.7856 2.70505 12.7856 5.30153V11.1786H8.08394C8.08394 11.1786 8.08394 2.43646 8.08394 0.59988Z" stroke="#EA4C89"/>
<path d="M8.13672 6.47695H3.38629M8.08794 0.0556641V1.70183V11.1786M8.08794 0.59988C5.49145 0.59988 3.38629 2.70505 3.38629 5.30153V11.1786H8.08794C8.08794 11.1786 8.08794 2.43646 8.08794 0.59988Z" stroke="#EA4C89"/>
<path d="M13.9609 11.1785V17.0555" stroke="#EA4C89"/>
<path d="M11.6133 11.1785V17.0555" stroke="#EA4C89"/>
<path d="M9.26367 11.1785V17.0555" stroke="#EA4C89"/>
<path d="M6.91016 11.1785V17.0555" stroke="#EA4C89"/>
<path d="M4.55469 11.1785V17.0555" stroke="#EA4C89"/>
<path d="M2.20703 11.1785V17.0555" stroke="#EA4C89"/>
<path d="M0.445312 17.0557H15.7257" stroke="#EA4C89"/>
<path d="M0.445312 11.1785H15.7257" stroke="#EA4C89"/>
</svg>
