<svg width="15" height="12" viewBox="0 0 15 12" fill="none" xmlns="http://www.w3.org/2000/svg">
<path d="M14.8902 11.5554H14.0013V10.6666H1.55686V11.5554H0.667969V0.88878C0.667969 0.779892 0.707969 0.675003 0.780413 0.593669C0.852413 0.512336 0.952413 0.460336 1.06041 0.447447L1.11241 0.444336H14.4457C14.5546 0.444336 14.6595 0.484336 14.7409 0.55678C14.8222 0.62878 14.8742 0.728781 14.8871 0.836781L14.8902 0.88878V11.5554ZM14.0013 1.33322H1.55686V9.77767H14.0013V1.33322ZM12.668 8.88878H11.7791V2.22211H12.668V8.88878ZM3.77908 8.88878H2.89019V2.22211H3.77908V8.88878ZM6.0013 8.88878H5.11241V2.22211H6.0013V8.88878ZM8.22352 8.88878H7.33464V2.22211H8.22352V8.88878ZM10.4457 8.88878H9.55686V2.22211H10.4457V8.88878Z" fill="#EA4C89"/>
</svg>
