<svg width="16" height="17" viewBox="0 0 16 17" fill="none" xmlns="http://www.w3.org/2000/svg">
<path d="M12.543 13.8181H14.7248V15.4545C14.7248 15.7556 14.4804 15.9999 14.1793 15.9999H13.0884C12.7873 15.9999 12.543 15.7556 12.543 15.4545V13.8181Z" stroke="#EA4C89" stroke-width="0.8"/>
<path d="M0.544922 13.8181H2.72674V15.4545C2.72674 15.7556 2.48238 15.9999 2.18129 15.9999H1.09038C0.789285 15.9999 0.544922 15.7556 0.544922 15.4545V13.8181Z" stroke="#EA4C89" stroke-width="0.8"/>
<path d="M2.72869 8.36377H12.5469C13.7518 8.36377 14.7287 9.34068 14.7287 10.5456V13.2729C14.7287 13.574 14.4843 13.8183 14.1832 13.8183H1.09233C0.791239 13.8183 0.546875 13.574 0.546875 13.2729V10.5456C0.546875 9.34068 1.52378 8.36377 2.72869 8.36377Z" stroke="#EA4C89" stroke-width="0.8"/>
<path d="M12.5435 10.9454C12.6237 10.9454 12.689 11.0107 12.689 11.0909C12.689 11.171 12.6237 11.2363 12.5435 11.2363C12.4633 11.2363 12.398 11.171 12.398 11.0909C12.398 11.0107 12.4633 10.9454 12.5435 10.9454Z" fill="#EA4C89" stroke="#EA4C89" stroke-width="0.8"/>
<path d="M2.72905 10.9454C2.80923 10.9454 2.8745 11.0107 2.8745 11.0909C2.8745 11.171 2.80923 11.2363 2.72905 11.2363C2.64887 11.2363 2.58359 11.171 2.58359 11.0909C2.58359 11.0107 2.64887 10.9454 2.72905 10.9454Z" fill="#EA4C89" stroke="#EA4C89" stroke-width="0.8"/>
<path d="M3.65108 4H11.6224C11.8498 4 12.0533 4.14127 12.1329 4.354L13.6367 8.36364H1.63672L3.14054 4.354C3.22017 4.14127 3.42363 4 3.65108 4Z" stroke="#EA4C89" stroke-width="0.8"/>
<path d="M0.4 7.12729H1.23636V7.4182H0.4V7.12729Z" fill="#EA4C89" stroke="#EA4C89" stroke-width="0.8"/>
<path d="M14.0348 7.12729H14.8711V7.4182H14.0348V7.12729Z" fill="#EA4C89" stroke="#EA4C89" stroke-width="0.8"/>
<path d="M4.36328 11.0908H10.9087" stroke="#EA4C89" stroke-width="0.8"/>
<path d="M11 0.4C13.5391 0.4 15.6 2.46091 15.6 5C15.6 7.53909 13.5391 9.6 11 9.6C8.46091 9.6 6.4 7.53909 6.4 5C6.4 2.46091 8.46091 0.4 11 0.4Z" fill="white" stroke="#EA4C89" stroke-width="0.8"/>
<path d="M9.72654 4.84584L12.2957 1.82667L11.6297 4.53189L12.8593 4.83464L9.98367 8.03918L10.7103 5.08803L9.72654 4.84584Z" stroke="#EA4C89" stroke-width="0.506546" stroke-linejoin="round"/>
</svg>
