<svg width="17" height="17" viewBox="0 0 17 17" fill="none" xmlns="http://www.w3.org/2000/svg">
<path d="M3.16113 12.6129V12.2129C2.94022 12.2129 2.76113 12.392 2.76113 12.6129H3.16113ZM7.54823 12.6129V13.0129C7.76914 13.0129 7.94823 12.8338 7.94823 12.6129H7.54823ZM7.54823 8.22581V7.82581C7.32732 7.82581 7.14823 8.00489 7.14823 8.22581H7.54823ZM11.9353 8.22581V8.62581C12.1562 8.62581 12.3353 8.44672 12.3353 8.22581H11.9353ZM11.9353 3.83871V3.43871C11.7144 3.43871 11.5353 3.6178 11.5353 3.83871H11.9353ZM16.3224 3.83871V4.23871C16.5433 4.23871 16.7224 4.05962 16.7224 3.83871H16.3224ZM0.708185 8.72642C0.557093 8.88759 0.565259 9.14072 0.726424 9.29181C0.887588 9.44291 1.14072 9.43474 1.29181 9.27358L0.708185 8.72642ZM8.5 1L8.89598 0.943431C8.86783 0.746372 8.69906 0.6 8.5 0.6V1ZM5 0.6C4.77909 0.6 4.6 0.779086 4.6 1C4.6 1.22091 4.77909 1.4 5 1.4V0.6ZM8.60402 4.55657C8.63526 4.77526 8.83787 4.92722 9.05657 4.89598C9.27526 4.86474 9.42722 4.66213 9.39598 4.44343L8.60402 4.55657ZM3.56113 17V12.6129H2.76113V17H3.56113ZM3.16113 13.0129H7.54823V12.2129H3.16113V13.0129ZM7.94823 12.6129V8.22581H7.14823V12.6129H7.94823ZM7.54823 8.62581H11.9353V7.82581H7.54823V8.62581ZM12.3353 8.22581V3.83871H11.5353V8.22581H12.3353ZM11.9353 4.23871H16.3224V3.43871H11.9353V4.23871ZM16.7224 3.83871V0H15.9224V3.83871H16.7224ZM1.29181 9.27358L8.79182 1.27358L8.20819 0.726424L0.708185 8.72642L1.29181 9.27358ZM8.5 0.6H5V1.4H8.5V0.6ZM8.10402 1.05657L8.60402 4.55657L9.39598 4.44343L8.89598 0.943431L8.10402 1.05657Z" fill="#EA4C89"/>
</svg>
