<svg width="20" height="14" viewBox="0 0 20 14" fill="none" xmlns="http://www.w3.org/2000/svg">
<path d="M0.740234 12.9383H1.86959M3.90243 12.9383H2.88601H1.86959M1.86959 12.9383V1.87057C1.86959 1.87057 2.00575 1.20377 2.32133 0.967082C2.54449 0.799719 2.99895 0.741211 2.99895 0.741211H17.2288C17.2288 0.741211 17.7027 0.776638 17.9065 0.967082C18.1722 1.21539 18.1323 1.87057 18.1323 1.87057V12.9383M18.1323 12.9383H19.2617M18.1323 12.9383H17.003H15.8736" stroke="#EA4C89" stroke-width="0.8" stroke-linecap="round" stroke-linejoin="round"/>
<path d="M6.00195 3H7.66894V4.66699M7.66894 4.66699L6.00195 10.0013M7.66894 4.66699H12.3365M7.66894 4.66699L10.0027 10.0013M12.3365 4.66699V3M12.3365 4.66699L14.3369 10.0013H10.0027M12.3365 4.66699L10.0027 10.0013M12.3365 3H11.3363M12.3365 3H13.3367" stroke="#EA4C89" stroke-width="0.654097" stroke-linecap="round" stroke-linejoin="round"/>
<circle cx="5.99921" cy="9.33491" r="2.34013" stroke="#EA4C89" stroke-width="0.654097"/>
<circle cx="14.0031" cy="9.33515" r="2.34013" stroke="#EA4C89" stroke-width="0.654097"/>
</svg>
