<svg width="18" height="16" viewBox="0 0 18 16" fill="none" xmlns="http://www.w3.org/2000/svg">
<path d="M13.6061 15V2.4H2.45455V15M13.6061 15H16.5152M13.6061 15H12.1515M1 15H2.45455M12.1515 15V3.8H8.0303M12.1515 15H8.0303M3.90909 15V3.8H8.0303M3.90909 15H8.0303M3.90909 15H2.45455M8.0303 15V3.8M16.0303 4.73333V7.53333M16.0303 4.73333L15.0606 5.66667M16.0303 4.73333L17 5.66667M16.0303 8.93333V11.7333M16.0303 11.7333L15.0606 10.8M16.0303 11.7333L17 10.8M5.36364 1H10.2121V2.4H5.36364V1Z" stroke="#EA4C89" stroke-width="0.8" stroke-linecap="round"/>
</svg>
