<svg width="20" height="20" viewBox="0 0 20 20" fill="none" xmlns="http://www.w3.org/2000/svg">
<path d="M16.333 17.4164H15.4997V16.5831H3.83331V17.4164H3V7.41666C3 7.31458 3.0375 7.21624 3.10541 7.14C3.17291 7.06375 3.26666 7.015 3.36791 7.00292L3.41666 7H15.9164C16.0184 7 16.1168 7.0375 16.193 7.10541C16.2693 7.17291 16.318 7.26666 16.3301 7.36791L16.333 7.41666V17.4164ZM15.4997 7.83331H3.83331V15.7498H15.4997V7.83331ZM14.2497 14.9165H13.4164V8.66663H14.2497V14.9165ZM5.9166 14.9165H5.08328V8.66663H5.9166V14.9165ZM7.99988 14.9165H7.16656V8.66663H7.99988V14.9165ZM10.0832 14.9165H9.24985V8.66663H10.0832V14.9165ZM12.1664 14.9165H11.3331V8.66663H12.1664V14.9165Z" fill="#EA4C89"/>
<path d="M6 6C6 6 5 5.20403 5 4.5C5 3.79597 6 3.70403 6 3C6 2.29597 5 1.5 5 1.5M9 6C9 6 8 5.20403 8 4.5C8 3.79597 9 3.70403 9 3C9 2.29597 8 1.5 8 1.5M11.5 6C11.5 6 10.5 5.20403 10.5 4.5C10.5 3.79597 11.5 3.70403 11.5 3C11.5 2.29597 10.5 1.5 10.5 1.5M14 6C14 6 13 5.20403 13 4.5C13 3.79597 14 3.70403 14 3C14 2.29597 13 1.5 13 1.5" stroke="#EA4C89" stroke-width="0.7"/>
</svg>
