<svg width="17" height="14" viewBox="0 0 17 14" fill="none" xmlns="http://www.w3.org/2000/svg">
<path d="M13.4062 10.8181H15.5881V12.4545C15.5881 12.7556 15.3437 12.9999 15.0426 12.9999H13.9517C13.6506 12.9999 13.4062 12.7556 13.4062 12.4545V10.8181Z" stroke="#EA4C89"/>
<path d="M1.4082 10.8181H3.59002V12.4545C3.59002 12.7556 3.34566 12.9999 3.04457 12.9999H1.95366C1.65257 12.9999 1.4082 12.7556 1.4082 12.4545V10.8181Z" stroke="#EA4C89"/>
<path d="M3.59197 5.36353H13.4102C14.6151 5.36353 15.592 6.34043 15.592 7.54534V10.2726C15.592 10.5737 15.3476 10.8181 15.0465 10.8181H1.95561C1.65452 10.8181 1.41016 10.5737 1.41016 10.2726V7.54534C1.41016 6.34043 2.38707 5.36353 3.59197 5.36353Z" stroke="#EA4C89"/>
<path d="M13.4068 8.04541C13.4317 8.04541 13.4522 8.06592 13.4522 8.09086C13.4522 8.11581 13.4317 8.13632 13.4068 8.13632C13.3818 8.13632 13.3613 8.11581 13.3613 8.09086C13.3613 8.06592 13.3818 8.04541 13.4068 8.04541Z" fill="#19202E" stroke="#EA4C89"/>
<path d="M3.59233 8.04541C3.61728 8.04541 3.63778 8.06592 3.63778 8.09086C3.63778 8.11581 3.61728 8.13632 3.59233 8.13632C3.56738 8.13632 3.54688 8.11581 3.54688 8.09086C3.54688 8.06592 3.56738 8.04541 3.59233 8.04541Z" fill="#19202E" stroke="#EA4C89"/>
<path d="M4.51436 1H12.4856C12.7131 1 12.9165 1.14127 12.9962 1.354L14.5 5.36364H2.5L4.00382 1.354C4.08345 1.14127 4.28691 1 4.51436 1Z" stroke="#EA4C89"/>
<path d="M1.36328 4.22729H1.99964V4.3182H1.36328V4.22729Z" fill="#19202E" stroke="#EA4C89"/>
<path d="M14.998 4.22729H15.6344V4.3182H14.998V4.22729Z" fill="#19202E" stroke="#EA4C89"/>
<path d="M5.22461 8.09106H11.7701" stroke="#EA4C89"/>
</svg>
