<svg width="20" height="20" viewBox="0 0 20 20" fill="none" xmlns="http://www.w3.org/2000/svg">
<g clip-path="url(#clip0_4387_14033)">
<path d="M15 15.7167H14.3667C13.7 15.7167 13.0667 15.9751 12.6 16.4417L11.175 17.8501C10.525 18.4917 9.46668 18.4917 8.81668 17.8501L7.39166 16.4417C6.925 15.9751 6.28333 15.7167 5.625 15.7167H5C3.61667 15.7167 2.5 14.6084 2.5 13.2417V4.14175C2.5 2.77508 3.61667 1.66675 5 1.66675H15C16.3833 1.66675 17.5 2.77508 17.5 4.14175V13.2334C17.5 14.6001 16.3833 15.7167 15 15.7167Z" stroke="#EA4C89" stroke-miterlimit="10" stroke-linecap="round" stroke-linejoin="round"/>
<path d="M10.0589 7.45825C10.0255 7.45825 9.97552 7.45825 9.93386 7.45825C9.05886 7.42492 8.36719 6.71659 8.36719 5.83325C8.36719 4.93325 9.0922 4.20825 9.9922 4.20825C10.8922 4.20825 11.6172 4.94159 11.6172 5.83325C11.6255 6.71659 10.9339 7.43325 10.0589 7.45825Z" stroke="#EA4C89" stroke-linecap="round" stroke-linejoin="round"/>
<path d="M7.7082 9.96655C6.59987 10.7082 6.59987 11.9166 7.7082 12.6582C8.96654 13.4999 11.0332 13.4999 12.2915 12.6582C13.3999 11.9166 13.3999 10.7082 12.2915 9.96655C11.0332 9.13322 8.97487 9.13322 7.7082 9.96655Z" stroke="#EA4C89" stroke-linecap="round" stroke-linejoin="round"/>
</g>
<defs>
<clipPath id="clip0_4387_14033">
<rect width="20" height="20" fill="white"/>
</clipPath>
</defs>
</svg>
