<svg width="16" height="15" viewBox="0 0 16 15" fill="none" xmlns="http://www.w3.org/2000/svg">
<path d="M10.8434 1C10.8434 1 9.66417 1.80774 9.80724 2.49648C9.91946 3.03676 10.7312 2.95384 10.8434 3.49413C10.9864 4.18286 9.80724 4.28823 9.80724 4.9906C9.80724 5.69298 10.8434 6.48708 10.8434 6.48708M12.9157 1C12.9157 1 11.7365 1.80774 11.8795 2.49648C11.9918 3.03676 12.8034 2.95384 12.9157 3.49413C13.0587 4.18286 11.8795 4.28823 11.8795 4.9906C11.8795 5.69298 12.9157 6.48708 12.9157 6.48708M14.988 1C14.988 1 13.8088 1.80774 13.9518 2.49648C14.064 3.03676 14.8757 2.95384 14.988 3.49413C15.131 4.18286 13.9518 4.28823 13.9518 4.9906C13.9518 5.69298 14.988 6.48708 14.988 6.48708M1 11.4753H6.18073M6.18073 11.4753H8.25302L9.99302 13.5695C9.99302 13.5695 10.5166 14.1356 10.8434 13.9695C11.2012 13.7875 10.8434 12.9718 10.8434 12.9718L9.90958 9.87421C9.90958 9.87421 9.84945 9.51734 9.80724 9.48003C9.76502 9.44273 8.25302 9.48003 8.25302 9.48003H6.6988L5.14458 6.48708H4.10844L2.55422 8.98121C2.55422 8.98121 2.05379 9.81652 2.03615 9.97886C2.01261 10.1955 2.55422 11.4753 2.55422 11.4753V10.9765L4.10844 8.98121L6.18073 11.4753Z" stroke="#EA4C89" stroke-width="0.8" stroke-linecap="round"/>
<circle cx="4.5" cy="4" r="1.6" stroke="#EA4C89" stroke-width="0.8"/>
</svg>
