<svg width="16" height="14" viewBox="0 0 16 14" fill="none" xmlns="http://www.w3.org/2000/svg">
<path fill-rule="evenodd" clip-rule="evenodd" d="M12.0289 4.14521V3.24069H9.51046V3.30287V4.14579L12.0289 4.14521ZM9.51046 7.90941C9.89192 8.03863 10.2031 8.23003 10.5195 8.48846C10.7703 8.6847 11.1465 8.94376 11.3375 8.94376C11.4629 8.94376 11.7787 8.68472 12.0295 8.5555V6.67399H9.51106L9.51046 7.90941ZM15.3056 9.72448C14.548 9.2692 13.6052 8.74688 13.2887 8.74688C13.1633 8.74688 12.8475 9.01137 12.6618 9.20218C12.2153 9.52764 11.7787 9.84827 11.3375 9.84827C10.8957 9.84827 10.4544 9.52764 10.0126 9.20218C9.70148 9.01137 9.26028 8.74688 9.06984 8.74688C8.81846 8.74688 8.43756 9.01139 8.12641 9.26922C7.68518 9.52765 7.30433 9.84827 6.93224 9.84827C6.48574 9.84827 6.11012 9.52765 5.73335 9.26922C5.41752 9.01078 5.04074 8.74688 4.79053 8.74688C4.53447 8.74688 4.16356 9.01139 3.84246 9.26922C3.40591 9.52765 3.02446 9.84827 2.58323 9.84827C1.95098 9.84827 0.636648 8.94375 0.255186 8.68471C0.0694362 8.5555 0.00381472 8.23003 0.129797 8.03862C0.255193 7.84238 0.565755 7.77536 0.761466 7.90941C1.45407 8.42628 2.33183 8.94376 2.58262 8.94376C2.71329 8.94376 3.0889 8.6847 3.27523 8.48846C3.71646 8.16784 4.22332 7.84237 4.79053 7.84237C5.29212 7.84237 5.79372 8.23063 6.24081 8.55609C6.42597 8.68531 6.80214 8.94435 6.93281 8.94435C7.05352 8.94435 7.4344 8.68529 7.62543 8.48905C7.99693 8.23062 8.37839 7.97222 8.75458 7.843V5.83228V3.30349V1.68527C8.75458 0.909963 8.18736 0.780741 8.12759 0.713717C7.99692 0.713717 7.87681 0.516849 7.87681 0.387632C7.87681 0.129198 7.99692 0 8.25298 0C8.25298 0 8.253 0 8.31804 0C8.75458 0.0670238 9.51221 0.583902 9.51221 1.68527V2.46598H12.0307V1.68527C12.0307 1.03918 11.5244 0.842911 11.399 0.780718C11.2133 0.780718 11.0879 0.583873 11.0879 0.387632C11.0879 0.196825 11.2789 0 11.4647 0C11.5244 0 11.5244 -2.29948e-05 11.59 0.0670008C11.9715 0.129194 12.7843 0.583902 12.7843 1.68527V3.24128V5.89869V7.97221C12.9747 7.91002 13.1651 7.84237 13.2905 7.84237C13.9831 7.84237 15.3678 8.74691 15.8148 9.01139C15.935 9.07358 16 9.20217 16 9.39902C16 9.46121 16 9.52825 15.9349 9.59044C15.8125 9.84827 15.5517 9.91528 15.3056 9.72448ZM0.0682821 10.0445C0.18899 9.84828 0.504793 9.78605 0.695231 9.91527C1.38784 10.4376 2.26563 10.9544 2.51642 10.9544C2.64709 10.9544 3.0227 10.6912 3.20903 10.4998C3.65026 10.1737 4.16239 9.78606 4.72433 9.78606C5.22592 9.78606 5.73276 10.1737 6.17458 10.5614C6.35974 10.6906 6.74181 10.9539 6.86662 10.9539C6.9926 10.9539 7.36937 10.6906 7.55923 10.4992C7.99577 10.1731 8.50261 9.84764 9.00947 9.84764C9.51105 9.84764 9.95286 10.1731 10.455 10.4992C10.7058 10.69 11.0867 10.9539 11.2777 10.9539C11.4629 10.9539 11.7787 10.6906 12.0295 10.4992C12.4063 10.1731 12.8475 9.84764 13.2237 9.84764C13.9163 9.84764 15.3062 10.7576 15.748 11.0167C15.9332 11.1459 15.9988 11.4043 15.8734 11.6005C15.748 11.8596 15.492 11.9266 15.2412 11.7304C14.4888 11.2751 13.5407 10.7582 13.2243 10.7582C13.1042 10.7582 12.7831 11.0173 12.5973 11.2135C12.1561 11.539 11.7143 11.8596 11.2783 11.8596C10.8312 11.8596 10.3947 11.539 9.95347 11.2135C9.63705 11.0173 9.20107 10.7582 9.01004 10.7582C8.75398 10.7582 8.37839 11.0173 8.06197 11.2757C7.62542 11.5396 7.24453 11.8602 6.86776 11.8602C6.42653 11.8602 6.05095 11.5396 5.6689 11.2757C5.35834 11.0173 4.97629 10.7582 4.72608 10.7582C4.47471 10.7582 4.09911 11.0173 3.78269 11.2757C3.34146 11.5396 2.95998 11.8602 2.51875 11.8602C1.89177 11.8602 0.566927 10.9551 0.190739 10.6912C0.00323104 10.5614 -0.0623876 10.2408 0.0682821 10.0445ZM0.0682821 12.2521C0.18899 11.9888 0.504793 11.9888 0.695231 12.1174C1.38784 12.5727 2.26563 13.0896 2.51642 13.0896C2.64709 13.0896 3.0227 12.8305 3.20903 12.7019C3.65026 12.3765 4.16239 11.9882 4.72433 11.9882C5.22592 11.9882 5.73276 12.3765 6.17458 12.7019C6.35974 12.8311 6.74181 13.0896 6.86662 13.0896C6.9926 13.0896 7.36937 12.8305 7.55923 12.7019C7.99577 12.3765 8.50261 11.9882 9.00947 11.9882C9.51105 11.9882 9.95286 12.3137 10.455 12.6397C10.7058 12.8305 11.0867 13.0896 11.2777 13.0896C11.4629 13.0896 11.7787 12.8305 12.0295 12.6397C12.4063 12.3137 12.8475 12.0552 13.2237 12.0552C13.9163 12.0552 15.3062 12.8982 15.748 13.2182C15.9332 13.3528 15.9988 13.6113 15.8734 13.8033C15.748 13.9989 15.492 14.0617 15.2412 13.9319C14.4888 13.4772 13.5407 12.8981 13.2243 12.8981C13.1042 12.8981 12.7831 13.2182 12.5973 13.3528C12.1561 13.6735 11.7143 13.9989 11.2783 13.9989C10.8312 13.9989 10.3947 13.7405 9.95347 13.415C9.63705 13.2182 9.20107 12.8981 9.01004 12.8981C8.75398 12.8981 8.37839 13.2182 8.06197 13.415C7.62542 13.7405 7.24453 13.9989 6.86776 13.9989C6.42653 13.9989 6.05095 13.7405 5.6689 13.4772C5.35834 13.2182 4.97629 12.8981 4.72608 12.8981C4.47471 12.8981 4.09911 13.2182 3.78269 13.415C3.34146 13.7405 2.95998 13.9989 2.51875 13.9989C1.89177 13.9989 0.566927 13.0895 0.190739 12.8305C0.00323104 12.7019 -0.0623876 12.4435 0.0682821 12.2521ZM12.0289 4.99359H9.51046V5.83165V5.89869H12.0289V4.99359Z" fill="#EA4C89"/>
</svg>
