<svg width="23" height="20" viewBox="0 0 23 20" fill="none" xmlns="http://www.w3.org/2000/svg">
<path d="M3.38672 10.3333C3.38672 10.0572 3.16286 9.83333 2.88672 9.83333C2.61058 9.83333 2.38672 10.0572 2.38672 10.3333H3.38672ZM2.38672 19C2.38672 19.2761 2.61058 19.5 2.88672 19.5C3.16286 19.5 3.38672 19.2761 3.38672 19H2.38672ZM7.38672 10.3333C7.38672 10.0572 7.16286 9.83333 6.88672 9.83333C6.61058 9.83333 6.38672 10.0572 6.38672 10.3333H7.38672ZM6.38672 19C6.38672 19.2761 6.61058 19.5 6.88672 19.5C7.16286 19.5 7.38672 19.2761 7.38672 19H6.38672ZM11.3867 10.3333C11.3867 10.0572 11.1629 9.83333 10.8867 9.83333C10.6106 9.83333 10.3867 10.0572 10.3867 10.3333H11.3867ZM10.3867 19C10.3867 19.2761 10.6106 19.5 10.8867 19.5C11.1629 19.5 11.3867 19.2761 11.3867 19H10.3867ZM0.886719 11.8333C0.610576 11.8333 0.386719 12.0572 0.386719 12.3333C0.386719 12.6095 0.610576 12.8333 0.886719 12.8333V11.8333ZM12.8867 12.8333C13.1629 12.8333 13.3867 12.6095 13.3867 12.3333C13.3867 12.0572 13.1629 11.8333 12.8867 11.8333V12.8333ZM0.886719 16.5C0.610576 16.5 0.386719 16.7239 0.386719 17C0.386719 17.2761 0.610576 17.5 0.886719 17.5V16.5ZM12.8867 17.5C13.1629 17.5 13.3867 17.2761 13.3867 17C13.3867 16.7239 13.1629 16.5 12.8867 16.5V17.5ZM15.0534 19C15.0534 19.2761 15.2772 19.5 15.5534 19.5C15.8295 19.5 16.0534 19.2761 16.0534 19H15.0534ZM15.5534 15V14.5H15.0534V15H15.5534ZM21.5534 15V15.5C21.7486 15.5 21.926 15.3863 22.0076 15.2089C22.0892 15.0315 22.0601 14.8229 21.933 14.6746L21.5534 15ZM17.5534 10.3333V9.83333H16.4663L17.1738 10.6587L17.5534 10.3333ZM20.2201 10.3333V10.8333C20.4044 10.8333 20.5739 10.7318 20.6609 10.5693C20.7479 10.4067 20.7384 10.2094 20.6361 10.056L20.2201 10.3333ZM17.5534 6.33333V5.83333H16.6191L17.1374 6.61068L17.5534 6.33333ZM19.5534 6.33333V6.83333C19.7428 6.83333 19.9159 6.72633 20.0006 6.55694C20.0853 6.38755 20.067 6.18484 19.9534 6.03333L19.5534 6.33333ZM15.5534 1L15.9534 0.7C15.859 0.574097 15.7108 0.5 15.5534 0.5C15.396 0.5 15.2478 0.574097 15.1534 0.7L15.5534 1ZM11.5534 6.33333L11.1534 6.03333C11.0398 6.18484 11.0215 6.38755 11.1062 6.55694C11.1909 6.72633 11.364 6.83333 11.5534 6.83333V6.33333ZM14.2201 6.33333L14.6201 6.63333L15.2201 5.83333H14.2201V6.33333ZM11.8201 8.7C11.6544 8.92091 11.6991 9.23431 11.9201 9.4C12.141 9.56569 12.4544 9.52091 12.6201 9.3L11.8201 8.7ZM2.38672 10.3333V19H3.38672V10.3333H2.38672ZM6.38672 10.3333V19H7.38672V10.3333H6.38672ZM10.3867 10.3333V19H11.3867V10.3333H10.3867ZM0.886719 12.8333H12.8867V11.8333H0.886719V12.8333ZM0.886719 17.5H12.8867V16.5H0.886719V17.5ZM16.0534 19V15H15.0534V19H16.0534ZM15.5534 15.5H21.5534V14.5H15.5534V15.5ZM21.933 14.6746L17.933 10.0079L17.1738 10.6587L21.1738 15.3254L21.933 14.6746ZM17.5534 10.8333H20.2201V9.83333H17.5534V10.8333ZM20.6361 10.056L17.9694 6.05598L17.1374 6.61068L19.804 10.6107L20.6361 10.056ZM17.5534 6.83333H19.5534V5.83333H17.5534V6.83333ZM19.9534 6.03333L15.9534 0.7L15.1534 1.3L19.1534 6.63333L19.9534 6.03333ZM15.1534 0.7L11.1534 6.03333L11.9534 6.63333L15.9534 1.3L15.1534 0.7ZM11.5534 6.83333H14.2201V5.83333H11.5534V6.83333ZM13.8201 6.03333L11.8201 8.7L12.6201 9.3L14.6201 6.63333L13.8201 6.03333Z" fill="#EA4C89"/>
</svg>