<svg width="19" height="17" viewBox="0 0 19 17" fill="none" xmlns="http://www.w3.org/2000/svg">
<path d="M5 3.5L6.5 3M5 3.5L1.5 6L3.5 9L5 8M5 3.5V8M14.5 3.5L13 3M14.5 3.5L18 6L16 9L14.5 8M14.5 3.5V8M13 3H11.5M13 3C13 3 14.2282 2.729 15 2.5C15.592 2.32436 15.943 2.26641 16.5 2C17.1351 1.69624 18 1 18 1M14.5 8V16H5V8M6.5 3C6.5 3 4.9236 2.87184 4 2.5C3.59497 2.33694 3 2 3 2L1.5 1M6.5 3H8M11.5 3H10.5H9H8M11.5 3C11.5 3 11.275 5.69999 10 6C9.61986 6.08945 9.88163 6.08289 9.5 6C8.17457 5.71212 8 3 8 3M7 4V1.5M12.5 4V1.5" stroke="#EA4C89"/>
</svg>
