<svg width="16" height="16" viewBox="0 0 16 16" fill="none" xmlns="http://www.w3.org/2000/svg">
<path d="M16 4.79416C16 4.08799 15.5413 3.42721 14.7713 3.02722L9.81 0.447664C8.72667 -0.149052 7.27133 -0.148044 6.19733 0.443629L1.22867 3.02722C0.459333 3.42721 0 4.08799 0 4.79416C0 5.48975 0.747333 6.05519 1.66667 6.05519H7.66667V11.8559C7.66667 11.9951 7.816 12.1081 8 12.1081C8.184 12.1081 8.33333 11.9951 8.33333 11.8559V6.05519H14.3333C15.2527 6.05519 16 5.48975 16 4.79416ZM4 4.69833V5.55078H1.66667C1.11533 5.55078 0.666667 5.21131 0.666667 4.79416C0.666667 4.25394 1.01733 3.74903 1.606 3.44285L6.582 0.855228C6.792 0.739718 7.02 0.652959 7.25667 0.594448L4.58067 3.35559C4.206 3.74197 4 4.21914 4 4.69833ZM7.66667 5.55078H4.66667V4.69833C4.66667 4.32557 4.82667 3.95483 5.11867 3.6547L7.66667 1.02572V5.55078ZM11.3333 5.55078H8.33333V1.02521L10.8813 3.6542C11.1733 3.95483 11.3333 4.32506 11.3333 4.69782V5.55078ZM11.4193 3.35559L8.744 0.595457C8.98267 0.654473 9.21267 0.74224 9.42467 0.859263L14.3933 3.44285C14.982 3.74852 15.3327 4.25344 15.3327 4.79416C15.3327 5.21131 14.884 5.55078 14.3327 5.55078H11.9993V4.69833C11.9993 4.21914 11.7933 3.74146 11.4193 3.35559Z" fill="#EA4C89"/>
<path d="M15.1992 15.4571V7.75" stroke="#EA4C89" stroke-linecap="round"/>
<path d="M9.94141 15.4571C9.94141 15.7332 10.1653 15.9571 10.4414 15.9571C10.7175 15.9571 10.9414 15.7332 10.9414 15.4571H9.94141ZM15.1947 11.5852H11.0356V12.5852H15.1947V11.5852ZM11.0356 11.5852C10.5346 11.5852 9.94141 11.9319 9.94141 12.5669H10.9414C10.9414 12.5857 10.9364 12.6013 10.9314 12.6108C10.9269 12.6194 10.9245 12.6195 10.9304 12.6147C10.9434 12.6042 10.979 12.5852 11.0356 12.5852V11.5852ZM9.94141 12.5669V15.4571H10.9414V12.5669H9.94141Z" fill="#EA4C89"/>
<path d="M0.9375 15.4571V7.75" stroke="#EA4C89" stroke-linecap="round"/>
<path d="M5.19082 15.4571C5.19082 15.7332 5.41467 15.9571 5.69082 15.9571C5.96696 15.9571 6.19082 15.7332 6.19082 15.4571H5.19082ZM0.9375 12.5852H5.09665V11.5852H0.9375V12.5852ZM5.09665 12.5852C5.15324 12.5852 5.18884 12.6042 5.20185 12.6147C5.20772 12.6195 5.20533 12.6194 5.20086 12.6108C5.19587 12.6013 5.19082 12.5857 5.19082 12.5669H6.19082C6.19082 11.9319 5.59763 11.5852 5.09665 11.5852V12.5852ZM5.19082 12.5669V15.4571H6.19082V12.5669H5.19082Z" fill="#EA4C89"/>
<path d="M8 15.5V1" stroke="#EA4C89" stroke-linecap="round" stroke-linejoin="round"/>
</svg>
