<svg width="34" height="34" viewBox="0 0 34 34" fill="none" xmlns="http://www.w3.org/2000/svg">
<path d="M14.842 13.6634C15.0836 13.5297 15.1712 13.2255 15.0376 12.9838C14.9039 12.7422 14.5997 12.6546 14.358 12.7883L14.842 13.6634ZM10.4 15.5484L10.158 15.1108C9.99882 15.1989 9.9 15.3665 9.9 15.5484H10.4ZM23.6 15.5484H24.1C24.1 15.3665 24.0012 15.1989 23.842 15.1108L23.6 15.5484ZM19.642 12.7883C19.4003 12.6546 19.0961 12.7422 18.9624 12.9838C18.8288 13.2255 18.9164 13.5297 19.158 13.6634L19.642 12.7883ZM17 25.4194L16.7822 25.8694C16.9198 25.936 17.0802 25.936 17.2178 25.8694L17 25.4194ZM13.6178 23.2273C13.3692 23.1071 13.0702 23.2111 12.9499 23.4596C12.8296 23.7082 12.9336 24.0072 13.1822 24.1275L13.6178 23.2273ZM20.8178 24.1275C21.0664 24.0072 21.1704 23.7082 21.0501 23.4596C20.9298 23.2111 20.6308 23.1071 20.3822 23.2273L20.8178 24.1275ZM23.1 20.1935C23.1 20.4697 23.3239 20.6935 23.6 20.6935C23.8761 20.6935 24.1 20.4697 24.1 20.1935H23.1ZM9.9 20.1935C9.9 20.4697 10.1239 20.6935 10.4 20.6935C10.6761 20.6935 10.9 20.4697 10.9 20.1935H9.9ZM16.5 13.2258C16.5 13.5019 16.7239 13.7258 17 13.7258C17.2761 13.7258 17.5 13.5019 17.5 13.2258H16.5ZM17 8L17.3477 7.6407C17.1539 7.4531 16.8461 7.4531 16.6523 7.6407L17 8ZM14.2523 9.96328C14.0539 10.1553 14.0487 10.4719 14.2407 10.6703C14.4327 10.8687 14.7493 10.8739 14.9477 10.6819L14.2523 9.96328ZM19.0523 10.6819C19.2507 10.8739 19.5673 10.8687 19.7593 10.6703C19.9513 10.4719 19.9461 10.1553 19.7477 9.96328L19.0523 10.6819ZM12.5477 22.2948C12.7461 22.1027 12.7513 21.7862 12.5593 21.5878C12.3673 21.3893 12.0507 21.3841 11.8523 21.5762L12.5477 22.2948ZM8 26H7.5C7.5 26.2761 7.72386 26.5 8 26.5V26ZM8.5 23.0968C8.5 22.8206 8.27614 22.5968 8 22.5968C7.72386 22.5968 7.5 22.8206 7.5 23.0968H8.5ZM11 26.5C11.2761 26.5 11.5 26.2761 11.5 26C11.5 25.7239 11.2761 25.5 11 25.5V26.5ZM22.1477 21.5762C21.9493 21.3841 21.6327 21.3893 21.4407 21.5878C21.2487 21.7862 21.2539 22.1027 21.4523 22.2948L22.1477 21.5762ZM26 26V26.5C26.2761 26.5 26.5 26.2761 26.5 26H26ZM23 25.5C22.7239 25.5 22.5 25.7239 22.5 26C22.5 26.2761 22.7239 26.5 23 26.5V25.5ZM26.5 23.0968C26.5 22.8206 26.2761 22.5968 26 22.5968C25.7239 22.5968 25.5 22.8206 25.5 23.0968H26.5ZM14.358 12.7883L10.158 15.1108L10.642 15.9859L14.842 13.6634L14.358 12.7883ZM10.1987 16.0061L16.7987 18.9093L17.2013 17.9939L10.6013 15.0907L10.1987 16.0061ZM17.2013 18.9093L23.8013 16.0061L23.3987 15.0907L16.7987 17.9939L17.2013 18.9093ZM23.842 15.1108L19.642 12.7883L19.158 13.6634L23.358 15.9859L23.842 15.1108ZM16.5 18.4516V25.4194H17.5V18.4516H16.5ZM17.2178 24.9693L13.6178 23.2273L13.1822 24.1275L16.7822 25.8694L17.2178 24.9693ZM17.2178 25.8694L20.8178 24.1275L20.3822 23.2273L16.7822 24.9693L17.2178 25.8694ZM23.1 15.5484V20.1935H24.1V15.5484H23.1ZM9.9 15.5484V20.1935H10.9V15.5484H9.9ZM17.5 13.2258V8H16.5V13.2258H17.5ZM16.6523 7.6407L14.2523 9.96328L14.9477 10.6819L17.3477 8.3593L16.6523 7.6407ZM16.6523 8.3593L19.0523 10.6819L19.7477 9.96328L17.3477 7.6407L16.6523 8.3593ZM11.8523 21.5762L7.65229 25.6407L8.34771 26.3593L12.5477 22.2948L11.8523 21.5762ZM8.5 26V23.0968H7.5V26H8.5ZM8 26.5H11V25.5H8V26.5ZM21.4523 22.2948L25.6523 26.3593L26.3477 25.6407L22.1477 21.5762L21.4523 22.2948ZM26 25.5H23V26.5H26V25.5ZM26.5 26V23.0968H25.5V26H26.5Z" fill="#19202E"/>
</svg>
