<svg width="20" height="17" viewBox="0 0 20 17" fill="none" xmlns="http://www.w3.org/2000/svg">
<path d="M24.8065 23.611C24.8065 22.4004 24.8065 21.1844 24.8065 19.935C24.8065 18.6857 24.8065 17.4021 24.8065 16.0555C24.8065 14.6799 24.9896 12.963 25.0812 11.4484C25.1727 9.93369 25.1723 8.6217 24.8065 8.05547C24.7772 8.01058 24.4781 8.01058 24.1687 8.02169C23.8598 8.03281 23.5407 8.05547 23.4732 8.05547C21.6465 8.05547 21.3403 7.29814 20.3621 6.72214C19.326 6.11192 18.962 5.81281 17.6954 5.83325C15.0816 5.87547 14.0354 8.10036 11.9176 8.05547C9.76516 8.01014 8.0625 5.32525 6.13983 5.38881C4.39672 5.44658 2.75094 8.04525 0.806495 8.05547C-1.49662 8.06792 -2.64328 5.38036 -4.52684 6.27769C-3.75928 12.2261 -5.63928 17.7057 -4.52684 20.4999C-4.29573 21.0804 -3.10062 21.747 -2.30462 22.2777C-1.18195 23.0266 -0.354838 23.6146 0.806495 23.611C2.85583 23.6048 4.16516 20.9186 6.58427 20.9444C8.30783 20.9626 10.3714 23.659 12.3621 23.611C14.7452 23.5533 15.5412 20.8621 18.1398 20.9444C20.6576 21.0244 21.5714 24.4964 24.8065 23.611Z" stroke="#EA4C89"/>
<path d="M4.80577 1.38892H15.4724C15.7178 1.38892 15.9169 1.58803 15.9169 1.83336V12.5C15.9169 12.7454 15.7178 12.9445 15.4724 12.9445H4.80577C4.56044 12.9445 4.36133 12.7454 4.36133 12.5V1.83336C4.36133 1.58803 4.56044 1.38892 4.80577 1.38892Z" stroke="#EA4C89"/>
<path d="M10.1395 3.61108C12.1031 3.61108 13.6951 5.20308 13.6951 7.16664C13.6951 9.1302 12.1031 10.7222 10.1395 10.7222C8.17598 10.7222 6.58398 9.1302 6.58398 7.16664C6.58398 5.20308 8.17598 3.61108 10.1395 3.61108Z" stroke="#EA4C89"/>
<path d="M6.13976 2.72217C6.38509 2.72217 6.5842 2.92128 6.5842 3.16661C6.5842 3.41195 6.38509 3.61106 6.13976 3.61106C5.89442 3.61106 5.69531 3.41195 5.69531 3.16661C5.69531 2.92128 5.89442 2.72217 6.13976 2.72217Z" fill="#EA4C89"/>
</svg>
