<svg width="20" height="20" viewBox="0 0 20 20" fill="none" xmlns="http://www.w3.org/2000/svg">
<path d="M15.1679 13.4274H12.3824L13.0682 12.9131C13.2576 12.7713 13.2959 12.5026 13.1538 12.3132C13.0121 12.1247 12.7439 12.0856 12.5539 12.2277L10.3828 13.856L12.5539 15.4843C12.6279 15.54 12.718 15.5701 12.8106 15.5701C12.941 15.5701 13.0697 15.5108 13.1538 15.3987C13.2958 15.2093 13.2576 14.9407 13.0682 14.7988L12.3824 14.2845H15.1679C15.9948 14.2845 16.6678 14.9574 16.6678 15.7843C16.6678 16.6112 15.9948 17.2842 15.1679 17.2842H11.5255C11.2888 17.2842 11.097 17.476 11.097 17.7127C11.097 17.9493 11.2888 18.1412 11.5255 18.1412H15.1679C16.4675 18.1412 17.5248 17.0839 17.5248 15.7843C17.5248 14.4848 16.4675 13.4274 15.1679 13.4274Z" fill="#19202E"/>
<path d="M3.38243 16.8557V3.143C3.38243 2.90676 3.57473 2.71447 3.81097 2.71447H14.9526C15.1888 2.71447 15.3811 2.90676 15.3811 3.143V11.2849H16.2382V3.143C16.2382 2.4341 15.6615 1.85742 14.9526 1.85742H3.81097C3.10207 1.85742 2.52539 2.43408 2.52539 3.143V16.8557C2.52539 17.5646 3.10205 18.1413 3.81097 18.1413H8.95325V17.2843H3.81097C3.57473 17.2843 3.38243 17.092 3.38243 16.8557Z" fill="#19202E"/>
<path d="M4.66797 5.28547H10.2388V6.14251H4.66797V5.28547ZM12.8099 4.85693H14.524V6.57102H12.8099V4.85693ZM4.66797 9.57071H14.524V10.4277H4.66797V9.57071ZM4.66797 13.8559H9.38172V14.713H4.66797V13.8559Z" fill="#19202E"/>
</svg>
