<svg width="20" height="18" viewBox="0 0 20 18" fill="none" xmlns="http://www.w3.org/2000/svg">
<path d="M5.08657 7.62391V17.3382H2.49609V3.09058H18.0389V17.3382H15.4485V7.62391C15.4485 7.26642 15.1583 6.97629 14.8009 6.97629H5.73419C5.3767 6.97629 5.08657 7.26642 5.08657 7.62391Z" stroke="#EA4C89"/>
<path d="M0.554688 3.09058H19.9833" stroke="#EA4C89" stroke-linejoin="round"/>
<path d="M0.554688 0.5H19.9833" stroke="#EA4C89" stroke-linejoin="round"/>
<path d="M10.276 10.3892C12.0032 11.8806 12.8665 13.3332 12.8665 14.7463C12.8665 16.1769 11.7066 17.3368 10.276 17.3368C8.84543 17.3368 7.68555 16.1594 7.68555 14.7463C7.68555 13.3332 8.54882 11.8806 10.276 10.3892Z" stroke="#EA4C89"/>
<path d="M10.2735 14.5857C11.0785 14.5857 11.7307 15.2378 11.7307 16.0428C11.7307 16.8478 11.0785 17.5 10.2735 17.5C9.46856 17.5 8.81641 16.8478 8.81641 16.0428C8.81641 15.2378 9.46856 14.5857 10.2735 14.5857Z" stroke="#EA4C89" stroke-linejoin="round"/>
</svg>
