<svg width="18" height="18" viewBox="0 0 18 18" fill="none" xmlns="http://www.w3.org/2000/svg">
<path d="M11.6094 4.33978C11.6094 5.1078 12.232 5.73041 13 5.73041H16.1493C16.4858 5.73041 16.7586 6.00323 16.7586 6.33978V16.1415C16.7586 16.478 16.4858 16.7508 16.1493 16.7508H1.87109C1.53455 16.7508 1.26172 16.478 1.26172 16.1415V1.86328C1.26172 1.52673 1.53455 1.25391 1.87109 1.25391H3.94823C4.04846 1.25391 4.12886 1.33673 4.12589 1.4369C4.12304 1.53297 4.04434 1.60938 3.94823 1.60938H3C2.23198 1.60938 1.60938 2.23198 1.60938 3V7.5C1.60938 8.26802 2.23198 8.89062 3 8.89062H3.85849C4.00357 8.89062 4.1222 9.00626 4.12591 9.1513C4.12976 9.30167 4.00891 9.42565 3.85849 9.42565H3C2.23198 9.42565 1.60938 10.0483 1.60938 10.8163V15C1.60938 15.768 2.23198 16.3906 3 16.3906H10.045C10.813 16.3906 11.4356 15.768 11.4356 15V13.1425C11.4356 13.0945 11.4745 13.0556 11.5225 13.0556C11.5705 13.0556 11.6094 13.0945 11.6094 13.1425V15C11.6094 15.768 12.232 16.3906 13 16.3906H15C15.768 16.3906 16.3906 15.768 16.3906 15V7.15369C16.3906 6.38567 15.768 5.76306 15 5.76306H13C12.232 5.76306 11.6094 6.38567 11.6094 7.15369V8.25903C11.6094 8.8853 12.1171 9.39299 12.7433 9.39299H12.9879C13.0476 9.39299 13.0961 9.44143 13.0961 9.50118C13.0961 9.56094 13.0476 9.60938 12.9879 9.60938H9.91632C9.85637 9.60938 9.80776 9.56077 9.80776 9.50081C9.80776 9.44092 9.85627 9.39234 9.91616 9.39225L10.2092 9.39181C10.8619 9.39083 11.3906 8.86136 11.3906 8.20857V3C11.3906 2.23198 10.768 1.60938 10 1.60938H7.13682C7.03866 1.60938 6.95908 1.5298 6.95908 1.43164C6.95908 1.33348 7.03866 1.25391 7.13681 1.25391H11C11.3365 1.25391 11.6094 1.52673 11.6094 1.86328V4.33978Z" fill="#19202E" stroke="#19202E" stroke-width="0.78125"/>
</svg>
