<svg width="19" height="16" viewBox="0 0 19 16" fill="none" xmlns="http://www.w3.org/2000/svg">
<path d="M5 5V4.5C4.72386 4.5 4.5 4.72386 4.5 5H5ZM5 15.5H4.5C4.5 15.7761 4.72386 16 5 16V15.5ZM18 15.5V16C18.2761 16 18.5 15.7761 18.5 15.5H18ZM18 5H18.5C18.5 4.72386 18.2761 4.5 18 4.5V5ZM16 3H16.5C16.5 2.72386 16.2761 2.5 16 2.5V3ZM3 3V2.5C2.72386 2.5 2.5 2.72386 2.5 3H3ZM2.5 14C2.5 14.2761 2.72386 14.5 3 14.5C3.27614 14.5 3.5 14.2761 3.5 14H2.5ZM14 1H14.5C14.5 0.723858 14.2761 0.5 14 0.5V1ZM1 1V0.5C0.723858 0.5 0.5 0.723858 0.5 1H1ZM0.5 12C0.5 12.2761 0.723858 12.5 1 12.5C1.27614 12.5 1.5 12.2761 1.5 12H0.5ZM7.10957 13.1877C6.93706 13.4033 6.97202 13.7179 7.18765 13.8904C7.40328 14.0629 7.71793 14.028 7.89043 13.8123L7.10957 13.1877ZM9.5 11L9.77735 10.584C9.56155 10.4401 9.27158 10.4851 9.10957 10.6877L9.5 11ZM11 12L10.7226 12.416C10.9384 12.5599 11.2284 12.5149 11.3904 12.3123L11 12ZM13 9.5L13.424 9.235C13.3381 9.09753 13.1909 9.01025 13.029 9.00084C12.8672 8.99143 12.7108 9.06107 12.6096 9.18765L13 9.5ZM15.076 13.765C15.2224 13.9992 15.5308 14.0704 15.765 13.924C15.9992 13.7776 16.0704 13.4692 15.924 13.235L15.076 13.765ZM8.5 8V7.5C8.22386 7.5 8 7.72386 8 8H8.5ZM8.5 8.5H8C8 8.77614 8.22386 9 8.5 9V8.5ZM9 8.5V9C9.27614 9 9.5 8.77614 9.5 8.5H9ZM9 8H9.5C9.5 7.72386 9.27614 7.5 9 7.5V8ZM4.5 5V15.5H5.5V5H4.5ZM5 16H18V15H5V16ZM18.5 15.5V5H17.5V15.5H18.5ZM18 4.5H16V5.5H18V4.5ZM16 4.5H5V5.5H16V4.5ZM16.5 5V3H15.5V5H16.5ZM2.5 3V14H3.5V3H2.5ZM16 2.5H14V3.5H16V2.5ZM14 2.5H3V3.5H14V2.5ZM14.5 3V1H13.5V3H14.5ZM14 0.5H1V1.5H14V0.5ZM0.5 1V12H1.5V1H0.5ZM7.89043 13.8123L9.89043 11.3123L9.10957 10.6877L7.10957 13.1877L7.89043 13.8123ZM9.22265 11.416L10.7226 12.416L11.2774 11.584L9.77735 10.584L9.22265 11.416ZM11.3904 12.3123L13.3904 9.81235L12.6096 9.18765L10.6096 11.6877L11.3904 12.3123ZM12.576 9.765L15.076 13.765L15.924 13.235L13.424 9.235L12.576 9.765ZM8 8V8.5H9V8H8ZM8.5 9H9V8H8.5V9ZM9.5 8.5V8H8.5V8.5H9.5ZM9 7.5H8.5V8.5H9V7.5Z" fill="#19202E"/>
</svg>
