<svg width="16" height="14" viewBox="0 0 16 14" fill="none" xmlns="http://www.w3.org/2000/svg">
<path d="M12.543 10.9851H14.7248V12.6215C14.7248 12.9226 14.4804 13.1669 14.1793 13.1669H13.0884C12.7873 13.1669 12.543 12.9226 12.543 12.6215V10.9851Z" stroke="#EA4C89"/>
<path d="M0.544922 10.9851H2.72674V12.6215C2.72674 12.9226 2.48238 13.1669 2.18129 13.1669H1.09038C0.789285 13.1669 0.544922 12.9226 0.544922 12.6215V10.9851Z" stroke="#EA4C89"/>
<path d="M2.72869 5.53052H12.5469C13.7518 5.53052 14.7287 6.50743 14.7287 7.71234V10.4396C14.7287 10.7407 14.4843 10.9851 14.1832 10.9851H1.09233C0.791239 10.9851 0.546875 10.7407 0.546875 10.4396V7.71234C0.546875 6.50743 1.52378 5.53052 2.72869 5.53052Z" stroke="#EA4C89"/>
<path d="M12.5435 8.2124C12.5684 8.2124 12.589 8.23291 12.589 8.25786C12.589 8.28281 12.5684 8.30331 12.5435 8.30331C12.5186 8.30331 12.498 8.28281 12.498 8.25786C12.498 8.23291 12.5186 8.2124 12.5435 8.2124Z" fill="#19202E" stroke="#EA4C89"/>
<path d="M2.72905 8.2124C2.754 8.2124 2.7745 8.23291 2.7745 8.25786C2.7745 8.28281 2.754 8.30331 2.72905 8.30331C2.7041 8.30331 2.68359 8.28281 2.68359 8.25786C2.68359 8.23291 2.7041 8.2124 2.72905 8.2124Z" fill="#19202E" stroke="#EA4C89"/>
<path d="M3.65108 1.16699H11.6224C11.8498 1.16699 12.0533 1.30826 12.1329 1.52099L13.6367 5.53063H1.63672L3.14054 1.52099C3.22017 1.30826 3.42363 1.16699 3.65108 1.16699Z" stroke="#EA4C89"/>
<path d="M0.5 4.39429H1.13636V4.4852H0.5V4.39429Z" fill="#19202E" stroke="#EA4C89"/>
<path d="M14.1348 4.39429H14.7711V4.4852H14.1348V4.39429Z" fill="#19202E" stroke="#EA4C89"/>
<path d="M4.36133 8.25806H10.9068" stroke="#EA4C89"/>
</svg>
