<svg width="15" height="12" viewBox="0 0 15 12" fill="none" xmlns="http://www.w3.org/2000/svg">
<path d="M14.8882 11.5554H13.9993V10.6666H1.5549V11.5554H0.666016V0.88878C0.666016 0.779892 0.706016 0.675003 0.77846 0.593669C0.85046 0.512336 0.95046 0.460336 1.05846 0.447447L1.11046 0.444336H14.4438C14.5527 0.444336 14.6576 0.484336 14.7389 0.55678C14.8202 0.62878 14.8722 0.728781 14.8851 0.836781L14.8882 0.88878V11.5554ZM13.9993 1.33322H1.5549V9.77767H13.9993V1.33322ZM12.666 8.88878H11.7771V2.22211H12.666V8.88878ZM3.77713 8.88878H2.88824V2.22211H3.77713V8.88878ZM5.99935 8.88878H5.11046V2.22211H5.99935V8.88878ZM8.22157 8.88878H7.33268V2.22211H8.22157V8.88878ZM10.4438 8.88878H9.5549V2.22211H10.4438V8.88878Z" fill="#EA4C89"/>
</svg>
