<svg width="11" height="11" viewBox="0 0 11 11" fill="none" xmlns="http://www.w3.org/2000/svg">
<rect x="0.5" y="0.5" width="10" height="10" rx="5" stroke="#EA4C89"/>
<path d="M5.93069 3.90909V9H5.06931V3.90909H5.93069ZM5.50495 2C5.63696 2 5.75248 2.04432 5.85149 2.13297C5.9505 2.21529 6 2.34826 6 2.53189C6 2.70918 5.9505 2.84215 5.85149 2.9308C5.75248 3.01945 5.63696 3.06377 5.50495 3.06377C5.36634 3.06377 5.24752 3.01945 5.14851 2.9308C5.0495 2.84215 5 2.70918 5 2.53189C5 2.34826 5.0495 2.21529 5.14851 2.13297C5.24752 2.04432 5.36634 2 5.50495 2Z" fill="#EA4C89"/>
</svg>
