<svg width="16" height="20" viewBox="0 0 16 20" fill="none" xmlns="http://www.w3.org/2000/svg">
<path d="M7.21373 18.6012L7.21197 18.5993C5.98422 17.2627 4.33838 15.3609 3.00246 13.409C2.33449 12.433 1.75101 11.4546 1.33605 10.5359C0.91831 9.611 0.6875 8.7815 0.6875 8.09375C0.6875 4.23072 3.94625 1.0625 8 1.0625C12.0538 1.0625 15.3125 4.23072 15.3125 8.09375C15.3125 8.7815 15.0817 9.611 14.664 10.5359C14.249 11.4546 13.6655 12.433 12.9975 13.409C11.6644 15.3568 10.0227 17.2547 8.79575 18.5909C8.56686 18.8166 8.28666 18.9375 8 18.9375C7.68933 18.9375 7.42241 18.8307 7.21373 18.6012ZM8.47855 18.3536L8.48639 18.3457L8.49387 18.3375C10.02 16.6698 11.6078 14.7434 12.8177 12.9386C13.4224 12.0364 13.9392 11.155 14.3065 10.3446C14.6697 9.54301 14.9062 8.76902 14.9062 8.09375C14.9062 4.42175 11.7861 1.46875 8 1.46875C4.21393 1.46875 1.09375 4.42175 1.09375 8.09375C1.09375 8.76902 1.33026 9.54301 1.69351 10.3446C2.06078 11.155 2.57758 12.0364 3.18233 12.9386C4.3922 14.7434 5.98003 16.6698 7.50613 18.3375L7.54713 18.3823L7.59765 18.416C7.81477 18.5608 8.19108 18.641 8.47855 18.3536Z" fill="#19202E" stroke="#19202E"/>
<path d="M5.09375 8.3125C5.09375 6.71364 6.40114 5.40625 8 5.40625C9.59295 5.40625 10.9062 6.73894 10.9062 8.34375C10.9062 9.94261 9.59886 11.25 8 11.25C6.40705 11.25 5.09375 9.91731 5.09375 8.3125ZM5.5 8.34375C5.5 9.70853 6.59378 10.8438 8 10.8438C9.40622 10.8438 10.5 9.70853 10.5 8.34375C10.5 6.97386 9.36989 5.84375 8 5.84375C6.63011 5.84375 5.5 6.97386 5.5 8.34375Z" fill="#19202E" stroke="#19202E"/>
</svg>
