<svg width="18" height="21" viewBox="0 0 18 21" fill="none" xmlns="http://www.w3.org/2000/svg">
<path d="M12.9609 18.2466H15.2145V19.9367C15.2145 20.2477 14.9621 20.5001 14.6511 20.5001H13.5243C13.2133 20.5001 12.9609 20.2477 12.9609 19.9367V18.2466Z" stroke="#EA4C89"/>
<path d="M0.5625 18.2466H2.81602V19.9367C2.81602 20.2477 2.56363 20.5001 2.25264 20.5001H1.12588C0.814894 20.5001 0.5625 20.2477 0.5625 19.9367V18.2466Z" stroke="#EA4C89"/>
<path d="M2.81602 12.6125H12.9569C14.2014 12.6125 15.2104 13.6216 15.2104 14.8661V17.683C15.2104 17.994 14.958 18.2464 14.647 18.2464H1.12588C0.814894 18.2464 0.5625 17.994 0.5625 17.683V14.8661C0.5625 13.6216 1.57151 12.6125 2.81602 12.6125Z" stroke="#EA4C89"/>
<path d="M12.9579 14.8662C13.2689 14.8662 13.5213 15.1186 13.5213 15.4296C13.5213 15.7406 13.2689 15.993 12.9579 15.993C12.6469 15.993 12.3945 15.7406 12.3945 15.4296C12.3945 15.1186 12.6469 14.8662 12.9579 14.8662Z" fill="#EA4C89"/>
<path d="M2.81729 14.8662C3.12827 14.8662 3.38067 15.1186 3.38067 15.4296C3.38067 15.7406 3.12827 15.993 2.81729 15.993C2.5063 15.993 2.25391 15.7406 2.25391 15.4296C2.25391 15.1186 2.5063 14.8662 2.81729 14.8662Z" fill="#EA4C89"/>
<path d="M3.77197 8.10571H12.0052C12.2401 8.10571 12.4503 8.25163 12.5325 8.47135L13.3092 10.5421L14.0858 12.6128H1.69141L3.24465 8.47135C3.3269 8.25163 3.53704 8.10571 3.77197 8.10571Z" stroke="#EA4C89"/>
<path d="M0 10.9226H1.69014V12.0494H0V10.9226Z" fill="#EA4C89"/>
<path d="M14.082 10.9226H15.7722V12.0494H14.082V10.9226Z" fill="#EA4C89"/>
<path d="M4.50391 15.4297H11.2645" stroke="#EA4C89"/>
<path d="M12.6759 1C15.1986 1 17.2463 3.04769 17.2463 5.57042C17.2463 8.09315 15.1986 10.1408 12.6759 10.1408C10.1532 10.1408 8.10547 8.09315 8.10547 5.57042C8.10547 3.04769 10.1532 1 12.6759 1Z" fill="white" stroke="#EA4C89"/>
<path d="M13.6058 6.05108L13.6058 6.05108L13.6066 6.05081C13.8721 5.95909 14.0873 5.83504 14.25 5.67728C14.4113 5.52093 14.527 5.34411 14.5961 5.14693C14.669 4.94738 14.7055 4.74046 14.7055 4.52646C14.7055 4.04143 14.5497 3.65948 14.2336 3.38781C13.9172 3.11592 13.4198 2.98516 12.7523 2.98516H11.4102H11.3602V3.03516V8.10558V8.15558H11.4102H12.0493H12.0993V8.10558V6.18138H12.6316C13.0138 6.18138 13.3389 6.13843 13.6058 6.05108ZM12.0993 5.53457V3.63197H12.6955C13.1413 3.63197 13.4568 3.71211 13.652 3.86298C13.8452 4.01221 13.9451 4.23956 13.9451 4.55486C13.9451 4.7943 13.8944 4.98229 13.7976 5.12306C13.701 5.26364 13.5525 5.3692 13.3477 5.43756C13.1412 5.50174 12.8793 5.53457 12.5606 5.53457H12.0993Z" fill="#EA4C89" stroke="#EA4C89" stroke-width="0.1"/>
</svg>
