<svg width="13" height="18" viewBox="0 0 13 18" fill="none" xmlns="http://www.w3.org/2000/svg">
<path d="M3.80708 0.826067C4.66583 0.708567 5.38749 1.23398 5.72916 1.9169L6.56958 3.59732C7.03583 4.52982 6.76791 5.62398 6.06124 6.31232C5.64374 6.71857 5.22416 7.18273 4.98083 7.59232C4.96471 7.62151 4.95968 7.65554 4.96666 7.68815C5.19166 8.90732 6.01791 10.1119 6.75499 10.9757C6.79207 11.0168 6.84045 11.0462 6.89409 11.06C6.94774 11.0739 7.00428 11.0716 7.05666 11.0536L8.71291 10.5361C9.15906 10.3966 9.63815 10.4037 10.08 10.5564C10.5218 10.7091 10.903 10.9993 11.1679 11.3844L12.3667 13.1277C12.6917 13.6011 12.8562 14.2427 12.6071 14.8598C12.3846 15.4111 11.9542 16.2061 11.1712 16.7348C10.3587 17.2832 9.24583 17.4915 7.78958 16.9923C6.16249 16.434 4.62541 15.034 3.35083 13.2436C2.06874 11.4419 1.01333 9.19148 0.373328 6.84482C-0.231255 4.62898 0.133745 3.13732 0.992911 2.1769C1.82166 1.25023 3.00916 0.93565 3.80708 0.826067ZM4.79749 2.38273C4.60708 2.00232 4.26749 1.8144 3.94874 1.85815C3.23999 1.95565 2.35249 2.2194 1.76958 2.87148C1.21708 3.4894 0.834578 4.57773 1.37791 6.57065C1.98833 8.80732 2.99333 10.9448 4.19958 12.6394C5.41333 14.3448 6.7925 15.549 8.12749 16.0069C9.31708 16.4148 10.0817 16.2132 10.5883 15.8715C11.1242 15.5094 11.4537 14.934 11.6412 14.4698C11.7271 14.2573 11.69 13.9823 11.5083 13.7182L10.3096 11.9748C10.1709 11.7731 9.97118 11.621 9.73979 11.541C9.50839 11.461 9.25745 11.4572 9.02374 11.5302L7.36749 12.0477C6.87249 12.2023 6.31499 12.0644 5.96291 11.6519C5.19583 10.7532 4.21833 9.37482 3.94208 7.8769C3.88927 7.59617 3.94021 7.30581 4.08541 7.05982C4.40124 6.52898 4.90124 5.98773 5.33416 5.56607C5.75708 5.1544 5.87708 4.5419 5.63791 4.06315L4.79749 2.38315V2.38273Z" fill="#EA4C89"/>
</svg>
