<svg width="14" height="18" viewBox="0 0 14 18" fill="none" xmlns="http://www.w3.org/2000/svg">
<path d="M4.30708 0.826067C5.16583 0.708567 5.88749 1.23398 6.22916 1.9169L7.06958 3.59732C7.53583 4.52982 7.26791 5.62398 6.56124 6.31232C6.14374 6.71857 5.72416 7.18273 5.48083 7.59232C5.46471 7.62151 5.45968 7.65554 5.46666 7.68815C5.69166 8.90732 6.51791 10.1119 7.25499 10.9757C7.29207 11.0168 7.34045 11.0462 7.39409 11.06C7.44774 11.0739 7.50428 11.0716 7.55666 11.0536L9.21291 10.5361C9.65906 10.3966 10.1382 10.4037 10.58 10.5564C11.0218 10.7091 11.403 10.9993 11.6679 11.3844L12.8667 13.1277C13.1917 13.6011 13.3562 14.2427 13.1071 14.8598C12.8846 15.4111 12.4542 16.2061 11.6712 16.7348C10.8587 17.2832 9.74583 17.4915 8.28958 16.9923C6.66249 16.434 5.12541 15.034 3.85083 13.2436C2.56874 11.4419 1.51333 9.19148 0.873328 6.84482C0.268745 4.62898 0.633745 3.13732 1.49291 2.1769C2.32166 1.25023 3.50916 0.93565 4.30708 0.826067ZM5.29749 2.38273C5.10708 2.00232 4.76749 1.8144 4.44874 1.85815C3.73999 1.95565 2.85249 2.2194 2.26958 2.87148C1.71708 3.4894 1.33458 4.57773 1.87791 6.57065C2.48833 8.80732 3.49333 10.9448 4.69958 12.6394C5.91333 14.3448 7.2925 15.549 8.62749 16.0069C9.81708 16.4148 10.5817 16.2132 11.0883 15.8715C11.6242 15.5094 11.9537 14.934 12.1412 14.4698C12.2271 14.2573 12.19 13.9823 12.0083 13.7182L10.8096 11.9748C10.6709 11.7731 10.4712 11.621 10.2398 11.541C10.0084 11.461 9.75745 11.4572 9.52374 11.5302L7.86749 12.0477C7.37249 12.2023 6.81499 12.0644 6.46291 11.6519C5.69583 10.7532 4.71833 9.37482 4.44208 7.8769C4.38927 7.59617 4.44021 7.30581 4.58541 7.05982C4.90124 6.52898 5.40124 5.98773 5.83416 5.56607C6.25708 5.1544 6.37708 4.5419 6.13791 4.06315L5.29749 2.38315V2.38273Z" fill="#FDFDFD"/>
</svg>
