<svg xmlns="http://www.w3.org/2000/svg" width="46.24" height="46.24" viewBox="0 0 46.24 46.24">
  <g id="close_circle_primary" transform="translate(-81.88 -53.61)">
    <path id="Pfad_90" data-name="Pfad 90" d="M73.39,94.24A23.12,23.12,0,1,1,96.51,71.12,23.146,23.146,0,0,1,73.39,94.24Zm0-42.885A19.765,19.765,0,1,0,93.155,71.12,19.787,19.787,0,0,0,73.39,51.355Z" transform="translate(31.61 5.61)" fill="#ea4c89"/>
    <path id="Pfad_91" data-name="Pfad 91" d="M176.971,178.729a1.678,1.678,0,0,1-1.187-.491l-19.218-19.219a1.677,1.677,0,1,1,2.372-2.372l19.219,19.219a1.678,1.678,0,0,1-1.187,2.863Z" transform="translate(-62.362 -90.449)" fill="#ea4c89"/>
    <path id="Pfad_92" data-name="Pfad 92" d="M157.759,178.727a1.678,1.678,0,0,1-1.185-2.863l19.218-19.219a1.678,1.678,0,0,1,2.373,2.372l-19.219,19.219a1.678,1.678,0,0,1-1.187.491Z" transform="translate(-62.369 -90.448)" fill="#ea4c89"/>
  </g>
</svg>
