<?xml version="1.0" encoding="utf-8"?>
<!-- Generator: Adobe Illustrator 26.4.1, SVG Export Plug-In . SVG Version: 6.00 Build 0)  -->
<svg version="1.1" id="Ebene_1" xmlns="http://www.w3.org/2000/svg" xmlns:xlink="http://www.w3.org/1999/xlink" x="0px" y="0px"
	 viewBox="0 0 46.2 46.2" style="enable-background:new 0 0 46.2 46.2;" xml:space="preserve">
<style type="text/css">
	.st0{fill:#FFFFFF;}
</style>
<g id="close_circle_primary" transform="translate(-81.88 -53.61)">
	<path id="Pfad_90" class="st0" d="M105,99.8c-12.8,0-23.1-10.4-23.1-23.1S92.2,53.6,105,53.6s23.1,10.4,23.1,23.1l0,0
		C128.1,89.5,117.8,99.8,105,99.8z M105,57c-10.9,0-19.8,8.8-19.8,19.8c0,10.9,8.8,19.8,19.8,19.8s19.8-8.8,19.8-19.8
		C124.8,65.8,115.9,57,105,57z"/>
	<path id="Pfad_91" class="st0" d="M114.6,88.3c-0.4,0-0.9-0.2-1.2-0.5L94.2,68.6c-0.7-0.7-0.7-1.7,0-2.4s1.7-0.7,2.4,0l19.2,19.2
		c0.7,0.7,0.7,1.7,0,2.4C115.5,88.1,115.1,88.3,114.6,88.3L114.6,88.3z"/>
	<path id="Pfad_92" class="st0" d="M95.4,88.3c-0.9,0-1.7-0.8-1.7-1.7c0-0.4,0.2-0.9,0.5-1.2l19.2-19.2c0.7-0.6,1.7-0.6,2.4,0.1
		c0.6,0.6,0.6,1.7,0,2.3L96.6,87.8C96.3,88.1,95.8,88.3,95.4,88.3L95.4,88.3z"/>
</g>
</svg>
