<svg xmlns="http://www.w3.org/2000/svg" width="33.612" height="33.612" viewBox="0 0 33.612 33.612">
  <g id="Gruppe_475" data-name="Gruppe 475" transform="translate(-1542.388 -229.194)">
    <path id="Pfad_257" data-name="Pfad 257" d="M158.579,189.766a2.5,2.5,0,0,1-1.765-4.263l28.616-28.617a2.5,2.5,0,0,1,3.534,3.532l-28.617,28.617a2.5,2.5,0,0,1-1.767.731Z" transform="translate(1386.306 73.04)" fill="#19202E"/>
    <path id="Pfad_258" data-name="Pfad 258" d="M158.579,189.766a2.5,2.5,0,0,1-1.765-4.263l28.616-28.617a2.5,2.5,0,0,1,3.534,3.532l-28.617,28.617a2.5,2.5,0,0,1-1.767.731Z" transform="translate(1732.154 73.112) rotate(90)" fill="#19202E"/>
  </g>
</svg>
