<?xml version="1.0" encoding="utf-8"?>
<!-- Generator: Adobe Illustrator 26.5.0, SVG Export Plug-In . SVG Version: 6.00 Build 0)  -->
<svg version="1.1" id="Ebene_1" xmlns="http://www.w3.org/2000/svg" xmlns:xlink="http://www.w3.org/1999/xlink" x="0px" y="0px"
	 viewBox="0 0 33.6 33.6" style="enable-background:new 0 0 33.6 33.6;" xml:space="preserve">
<style type="text/css">
	.st0{fill:#FFFFFF;}
</style>
<g id="Gruppe_475" transform="translate(-1542.388 -229.194)">
	<path id="Pfad_257" class="st0" d="M1544.9,262.8c-1.4,0-2.5-1.1-2.5-2.5c0-0.7,0.3-1.3,0.7-1.8l28.6-28.6c1-0.9,2.6-0.9,3.5,0.1
		c0.9,1,0.9,2.4,0,3.4l-28.6,28.6C1546.2,262.5,1545.5,262.8,1544.9,262.8L1544.9,262.8z"/>
	<path id="Pfad_258" class="st0" d="M1542.4,231.7c0-1.4,1.1-2.5,2.5-2.5c0.7,0,1.3,0.3,1.8,0.7l28.6,28.6c0.9,1,0.9,2.6-0.1,3.5
		c-1,0.9-2.4,0.9-3.4,0l-28.6-28.6C1542.7,233,1542.4,232.4,1542.4,231.7L1542.4,231.7z"/>
</g>
</svg>
